<?xml version="1.0" encoding="UTF-8"?>
<svg width="527px" height="349px" viewBox="0 0 527 349" version="1.1" xmlns="http://www.w3.org/2000/svg" xmlns:xlink="http://www.w3.org/1999/xlink">
    <!-- Generator: Sketch 52.5 (67469) - http://www.bohemiancoding.com/sketch -->
    <title>Group 110</title>
    <desc>Created with Sketch.</desc>
    <defs>
        <polygon id="path-1" points="0 347.568245 526.757214 347.568245 526.757214 0.0515877437 0 0.0515877437"></polygon>
    </defs>
    <g id="-----Product-Pages***" stroke="none" stroke-width="1" fill="none" fill-rule="evenodd">
        <g id="GED-Ready-Design-1024" transform="translate(-433.000000, -262.000000)">
            <g id="Group-21" transform="translate(432.000000, 238.000000)">
                <g id="Group-110" transform="translate(1.000000, 24.000000)">
                    <polygon id="Fill-1" fill="#D8D8D8" points="0 280.323989 517.704735 280.323989 517.704735 278.853237 0 278.853237"></polygon>
                    <polygon id="Fill-2" fill="#D8D8D8" points="220.000539 341.804221 421.73772 280.087051 441.828194 279.59729 252.317375 341.804221"></polygon>
                    <polygon id="Fill-3" fill="#D8D8D8" points="263.877486 341.804221 461.970144 279.59729 478.607291 279.59729 292.802768 341.804221"></polygon>
                    <polygon id="Fill-4" fill="#996E47" points="285.761248 145.023621 302.60283 145.023621 302.60283 125.903844 285.761248 125.903844"></polygon>
                    <polygon id="Fill-5" fill="#A0A0A0" points="167.574552 184.882474 190.288847 184.882474 190.288847 173.151755 167.574552 173.151755"></polygon>
                    <polygon id="Fill-6" fill="#878787" points="162.150418 184.882474 167.527487 184.882474 167.527487 173.151755 162.150418 173.151755"></polygon>
                    <polygon id="Fill-7" fill="#C4C4C4" points="159.811922 190.030106 199.175131 190.030106 199.175131 184.733928 159.811922 184.733928"></polygon>
                    <polygon id="Fill-8" fill="#A0A0A0" points="148.781281 190.030106 159.804568 190.030106 159.804568 184.733928 148.781281 184.733928"></polygon>
                    <g id="Group-109" transform="translate(0.000000, 0.419164)">
                        <path d="M228.418536,172.817306 L130.038458,172.817306 C126.802803,172.817306 124.15545,170.168481 124.15545,166.934297 L124.15545,97.5398017 C124.15545,94.3041471 126.802803,91.6567933 130.038458,91.6567933 L228.418536,91.6567933 C231.654191,91.6567933 234.301544,94.3041471 234.301544,97.5398017 L234.301544,166.934297 C234.301544,170.168481 231.654191,172.817306 228.418536,172.817306" id="Fill-9" fill="#282828"></path>
                        <path d="M228.860938,172.817306 L135.432882,172.817306 C132.195757,172.817306 129.549874,170.168481 129.549874,166.934297 L129.549874,97.5398017 C129.549874,94.3041471 132.195757,91.6567933 135.432882,91.6567933 L228.860938,91.6567933 C232.096593,91.6567933 234.743947,94.3041471 234.743947,97.5398017 L234.743947,166.934297 C234.743947,170.169952 232.096593,172.817306 228.860938,172.817306" id="Fill-11" fill="#494949"></path>
                        <path d="M234.743947,162.62117 L234.743947,167.13785 C234.743947,170.261727 232.096593,172.817894 228.860938,172.817894 L135.432882,172.817894 C132.195757,172.817894 129.549874,170.261727 129.549874,167.13785 L129.549874,162.62117 L234.743947,162.62117 Z" id="Fill-13" fill="#CECECE"></path>
                        <mask id="mask-2" fill="white">
                            <use xlink:href="#path-1"></use>
                        </mask>
                        <g id="Clip-16"></g>
                        <polygon id="Fill-15" fill="#FFFFFF" mask="url(#mask-2)" points="134.941504 157.00878 228.244546 157.00878 228.244546 97.0506295 134.941504 97.0506295"></polygon>
                        <polygon id="Fill-17" fill="#58A5B7" mask="url(#mask-2)" points="137.707989 154.343777 225.261861 154.343777 225.261861 149.131432 137.707989 149.131432"></polygon>
                        <polygon id="Fill-18" fill="#58A5B7" mask="url(#mask-2)" points="137.707989 108.996078 225.261861 108.996078 225.261861 103.783733 137.707989 103.783733"></polygon>
                        <polygon id="Fill-19" fill="#9CCEDF" mask="url(#mask-2)" points="137.707989 111.753738 225.261861 111.753738 225.261861 108.962251 137.707989 108.962251"></polygon>
                        <polygon id="Fill-20" fill="#9CCEDF" mask="url(#mask-2)" points="137.706518 116.089515 152.364033 116.089515 152.364033 113.833382 137.706518 113.833382"></polygon>
                        <polygon id="Fill-21" fill="#DDDDDD" mask="url(#mask-2)" points="141.592245 146.700279 180.474518 146.700279 180.474518 144.844189 141.592245 144.844189"></polygon>
                        <polygon id="Fill-22" fill="#DDDDDD" mask="url(#mask-2)" points="141.592245 142.930741 180.474518 142.930741 180.474518 141.074652 141.592245 141.074652"></polygon>
                        <polygon id="Fill-23" fill="#DDDDDD" mask="url(#mask-2)" points="141.592245 139.162674 180.474518 139.162674 180.474518 137.306585 141.592245 137.306585"></polygon>
                        <polygon id="Fill-24" fill="#DDDDDD" mask="url(#mask-2)" points="141.592245 135.393136 180.474518 135.393136 180.474518 133.537047 141.592245 133.537047"></polygon>
                        <path d="M139.637616,134.503037 C139.637616,135.03545 139.205214,135.467851 138.672802,135.467851 C138.138919,135.467851 137.707989,135.03545 137.707989,134.503037 C137.707989,133.970625 138.138919,133.538224 138.672802,133.538224 C139.205214,133.538224 139.637616,133.970625 139.637616,134.503037" id="Fill-25" fill="#DDDDDD" mask="url(#mask-2)"></path>
                        <path d="M139.637616,138.197272 C139.637616,138.729685 139.205214,139.162086 138.672802,139.162086 C138.138919,139.162086 137.707989,138.729685 137.707989,138.197272 C137.707989,137.66486 138.138919,137.232459 138.672802,137.232459 C139.205214,137.232459 139.637616,137.66486 139.637616,138.197272" id="Fill-26" fill="#DDDDDD" mask="url(#mask-2)"></path>
                        <path d="M139.637616,141.966075 C139.637616,142.498487 139.205214,142.930888 138.672802,142.930888 C138.138919,142.930888 137.707989,142.498487 137.707989,141.966075 C137.707989,141.433662 138.138919,141.001261 138.672802,141.001261 C139.205214,141.001261 139.637616,141.433662 139.637616,141.966075" id="Fill-27" fill="#DDDDDD" mask="url(#mask-2)"></path>
                        <path d="M139.637616,145.734877 C139.637616,146.267289 139.205214,146.69969 138.672802,146.69969 C138.138919,146.69969 137.707989,146.267289 137.707989,145.734877 C137.707989,145.202465 138.138919,144.770064 138.672802,144.770064 C139.205214,144.770064 139.637616,145.202465 139.637616,145.734877" id="Fill-28" fill="#DDDDDD" mask="url(#mask-2)"></path>
                        <polygon id="Fill-29" fill="#DDDDDD" mask="url(#mask-2)" points="137.706518 120.685616 212.722228 120.685616 212.722228 118.829526 137.706518 118.829526"></polygon>
                        <polygon id="Fill-30" fill="#DDDDDD" mask="url(#mask-2)" points="137.706518 124.300724 212.722228 124.300724 212.722228 122.446106 137.706518 122.446106"></polygon>
                        <polygon id="Fill-31" fill="#DDDDDD" mask="url(#mask-2)" points="137.706518 127.917304 180.389214 127.917304 180.389214 126.061214 137.706518 126.061214"></polygon>
                        <polygon id="Fill-32" fill="#E5E5E5" mask="url(#mask-2)" points="134.941504 101.104022 228.219543 101.104022 228.219543 97.0506295 134.941504 97.0506295"></polygon>
                        <polygon id="Fill-33" fill="#FFFFFF" mask="url(#mask-2)" points="150.982997 100.150975 225.625136 100.150975 225.625136 98.0022061 150.982997 98.0022061"></polygon>
                        <path d="M140.334311,99.1446864 C140.334311,99.8535889 139.757776,100.431594 139.047403,100.431594 C138.33703,100.431594 137.760495,99.8535889 137.760495,99.1446864 C137.760495,98.4343131 138.33703,97.8577783 139.047403,97.8577783 C139.757776,97.8577783 140.334311,98.4343131 140.334311,99.1446864" id="Fill-34" fill="#EE1C00" mask="url(#mask-2)"></path>
                        <path d="M143.972363,99.1446864 C143.972363,99.8535889 143.395828,100.431594 142.685455,100.431594 C141.975082,100.431594 141.398547,99.8535889 141.398547,99.1446864 C141.398547,98.4343131 141.975082,97.8577783 142.685455,97.8577783 C143.395828,97.8577783 143.972363,98.4343131 143.972363,99.1446864" id="Fill-35" fill="#FFC107" mask="url(#mask-2)"></path>
                        <path d="M147.610416,99.1446864 C147.610416,99.8535889 147.033881,100.431594 146.323508,100.431594 C145.613134,100.431594 145.036599,99.8535889 145.036599,99.1446864 C145.036599,98.4343131 145.613134,97.8577783 146.323508,97.8577783 C147.033881,97.8577783 147.610416,98.4343131 147.610416,99.1446864" id="Fill-36" fill="#2FA734" mask="url(#mask-2)"></path>
                        <polygon id="Fill-37" fill="#9CCEDF" mask="url(#mask-2)" points="210.602875 116.089515 225.261861 116.089515 225.261861 113.833382 210.602875 113.833382"></polygon>
                        <polygon id="Fill-38" fill="#E0E2E9" mask="url(#mask-2)" points="171.14995 189.64624 214.301816 189.64624 214.301816 186.000245 171.14995 186.000245"></polygon>
                        <polygon id="Fill-39" fill="#282828" mask="url(#mask-2)" points="183.595454 186.382641 187.378228 186.382641 187.378228 185.294284 183.595454 185.294284"></polygon>
                        <polygon id="Fill-40" fill="#282828" mask="url(#mask-2)" points="188.191554 186.382641 191.974329 186.382641 191.974329 185.294284 188.191554 185.294284"></polygon>
                        <polygon id="Fill-41" fill="#282828" mask="url(#mask-2)" points="192.787655 186.382641 196.570429 186.382641 196.570429 185.294284 192.787655 185.294284"></polygon>
                        <polygon id="Fill-42" fill="#282828" mask="url(#mask-2)" points="189.201961 186.842986 192.984735 186.842986 192.984735 185.75463 189.201961 185.75463"></polygon>
                        <polygon id="Fill-43" fill="#282828" mask="url(#mask-2)" points="193.798061 186.842986 197.580836 186.842986 197.580836 185.75463 193.798061 185.75463"></polygon>
                        <polygon id="Fill-44" fill="#282828" mask="url(#mask-2)" points="194.809939 187.485705 198.592713 187.485705 198.592713 186.397348 194.809939 186.397348"></polygon>
                        <polygon id="Fill-45" fill="#282828" mask="url(#mask-2)" points="199.406039 187.485705 203.188813 187.485705 203.188813 186.397348 199.406039 186.397348"></polygon>
                        <polygon id="Fill-46" fill="#A0A0A0" mask="url(#mask-2)" points="171.098032 189.64624 192.607782 189.64624 192.607782 187.991643 171.098032 185.960535"></polygon>
                        <polygon id="Fill-47" fill="#C4C4C4" mask="url(#mask-2)" points="192.608223 189.64624 214.301816 189.64624 214.301816 188.050474 192.608223 188.050474"></polygon>
                        <path d="M412.668916,347.568245 L43.5101415,347.568245 C41.217239,347.568245 39.3420301,345.693036 39.3420301,343.401604 C39.3420301,341.108702 41.217239,339.233493 43.5101415,339.233493 L412.668916,339.233493 C414.960348,339.233493 416.835557,341.108702 416.835557,343.401604 C416.835557,345.693036 414.960348,347.568245 412.668916,347.568245" id="Fill-48" fill="#D8D8D8" mask="url(#mask-2)"></path>
                        <polygon id="Fill-49" fill="#A0A0A0" mask="url(#mask-2)" points="60.7700056 337.621549 72.2124568 337.621549 72.2124568 218.631822 60.7700056 218.631822"></polygon>
                        <polygon id="Fill-50" fill="#282828" mask="url(#mask-2)" points="60.7700056 343.276591 72.2124568 343.276591 72.2124568 337.393582 60.7700056 337.393582"></polygon>
                        <polygon id="Fill-51" fill="#CCCCCC" mask="url(#mask-2)" points="135.288602 337.621549 146.729582 337.621549 146.729582 218.631822 135.288602 218.631822"></polygon>
                        <polygon id="Fill-52" fill="#333333" mask="url(#mask-2)" points="135.288602 343.276591 146.729582 343.276591 146.729582 337.393582 135.288602 337.393582"></polygon>
                        <polygon id="Fill-53" fill="#CCCCCC" mask="url(#mask-2)" points="348.056423 337.621549 359.498875 337.621549 359.498875 218.631822 348.056423 218.631822"></polygon>
                        <polygon id="Fill-54" fill="#333333" mask="url(#mask-2)" points="348.056423 343.276591 359.498875 343.276591 359.498875 337.393582 348.056423 337.393582"></polygon>
                        <polygon id="Fill-55" fill="#A0A0A0" mask="url(#mask-2)" points="273.539298 337.621549 284.980279 337.621549 284.980279 218.631822 273.539298 218.631822"></polygon>
                        <polygon id="Fill-56" fill="#282828" mask="url(#mask-2)" points="273.539298 343.276591 284.980279 343.276591 284.980279 337.393582 273.539298 337.393582"></polygon>
                        <path d="M284.806877,343.295269 L243.236069,343.295269 C242.418331,343.295269 241.755022,342.63196 241.755022,341.812751 C241.755022,340.996484 242.418331,340.331704 243.236069,340.331704 L284.806877,340.331704 C285.626086,340.331704 286.289395,340.996484 286.289395,341.812751 C286.289395,342.63196 285.626086,343.295269 284.806877,343.295269" id="Fill-57" fill="#30221E" mask="url(#mask-2)"></path>
                        <path d="M282.010536,331.030962 L277.876252,331.030962 C277.763004,331.030962 277.651227,331.057435 277.54092,331.100087 C277.396787,331.057435 277.237945,331.030962 277.052631,331.030962 L253.600018,331.030962 C247.936152,331.030962 243.304753,335.663831 243.304753,341.326226 L274.846503,341.326226 L277.93214,341.326226 L285.041756,341.326226 C285.041756,335.663831 283.676898,331.030962 282.010536,331.030962" id="Fill-58" fill="#46332D" mask="url(#mask-2)"></path>
                        <polygon id="Fill-59" fill="#30221E" mask="url(#mask-2)" points="243.043253 343.29571 285.10088 343.29571 285.10088 341.385203 243.043253 341.385203"></polygon>
                        <path d="M226.66334,189.799933 L200.728098,189.799933 C196.810014,189.799933 193.603775,186.593694 193.603775,182.67561 C193.603775,178.757526 196.810014,175.551287 200.728098,175.551287 L226.66334,175.551287 C230.581424,175.551287 233.787664,178.757526 233.787664,182.67561 C233.787664,186.593694 230.581424,189.799933 226.66334,189.799933" id="Fill-60" fill="#AC8457" mask="url(#mask-2)"></path>
                        <path d="M313.798342,246.336232 L274.592504,246.336232 C269.739022,246.336232 265.767991,242.365201 265.767991,237.511719 L265.767991,146.075062 C265.767991,141.22158 269.739022,137.250549 274.592504,137.250549 L313.798342,137.250549 C318.653295,137.250549 322.622855,141.22158 322.622855,146.075062 L322.622855,237.511719 C322.622855,242.365201 318.653295,246.336232 313.798342,246.336232" id="Fill-61" fill="#34495C" mask="url(#mask-2)"></path>
                        <path d="M310.878311,248.137315 L238.196684,248.137315 C231.73567,248.137315 226.451258,242.852903 226.451258,236.393359 C226.451258,229.932345 231.73567,224.646462 238.196684,224.646462 L310.878311,224.646462 C317.339325,224.646462 322.622266,229.932345 322.622266,236.393359 C322.622266,242.852903 317.339325,248.137315 310.878311,248.137315" id="Fill-62" fill="#2A414B" mask="url(#mask-2)"></path>
                        <path d="M236.749023,189.799933 L212.213936,189.799933 C207.911987,189.799933 204.389535,186.277482 204.389535,181.975532 C204.389535,177.672111 207.911987,174.151131 212.213936,174.151131 L236.749023,174.151131 C241.052443,174.151131 244.571953,177.672111 244.571953,181.975532 C244.571953,186.277482 241.052443,189.799933 236.749023,189.799933" id="Fill-63" fill="#34495C" mask="url(#mask-2)"></path>
                        <polygon id="Fill-64" fill="#2A414B" mask="url(#mask-2)" points="226.450228 330.991398 249.145404 330.991398 249.145404 235.908747 226.450228 235.908747"></polygon>
                        <polygon id="Fill-65" fill="#34495C" mask="url(#mask-2)" points="242.001373 187.957228 231.210465 177.16632 268.783768 139.591545 279.574676 150.382453"></polygon>
                        <polygon id="Fill-66" fill="#2A414B" mask="url(#mask-2)" points="260.767287 330.991398 283.463933 330.991398 283.463933 235.908747 260.767287 235.908747"></polygon>
                        <path d="M247.753778,331.030962 L243.620965,331.030962 C243.506246,331.030962 243.394469,331.057435 243.284163,331.100087 C243.140029,331.057435 242.981188,331.030962 242.797344,331.030962 L219.34326,331.030962 C213.679394,331.030962 209.047996,335.663831 209.047996,341.326226 L240.591216,341.326226 L243.676853,341.326226 L250.784998,341.326226 C250.784998,335.663831 249.42014,331.030962 247.753778,331.030962" id="Fill-67" fill="#6C4637" mask="url(#mask-2)"></path>
                        <path d="M250.550119,343.295269 L208.980782,343.295269 C208.163044,343.295269 207.499735,342.63196 207.499735,341.812751 C207.499735,340.996484 208.163044,340.331704 208.980782,340.331704 L250.550119,340.331704 C251.369328,340.331704 252.032637,340.996484 252.032637,341.812751 C252.032637,342.63196 251.369328,343.295269 250.550119,343.295269" id="Fill-68" fill="#43362E" mask="url(#mask-2)"></path>
                        <polygon id="Fill-69" fill="#43362E" mask="url(#mask-2)" points="208.787967 343.29571 250.845593 343.29571 250.845593 341.385203 208.787967 341.385203"></polygon>
                        <polygon id="Fill-70" fill="#AB612B" mask="url(#mask-2)" points="129.521783 218.631822 365.359822 218.631822 365.359822 200.982797 129.521783 200.982797"></polygon>
                        <polygon id="Fill-71" fill="#843F1B" mask="url(#mask-2)" points="54.8869972 218.631822 129.309994 218.631822 129.309994 200.982797 54.8869972 200.982797"></polygon>
                        <polygon id="Fill-72" fill="#853E1B" mask="url(#mask-2)" points="129.521783 206.865805 365.359822 206.865805 365.359822 200.982797 129.521783 200.982797"></polygon>
                        <polygon id="Fill-73" fill="#4F250D" mask="url(#mask-2)" points="54.8869972 206.865805 129.309994 206.865805 129.309994 200.982797 54.8869972 200.982797"></polygon>
                        <polygon id="Fill-74" fill="#E19749" mask="url(#mask-2)" points="118.273471 201.474028 376.636078 201.474028 376.636078 189.708011 118.273471 189.708011"></polygon>
                        <polygon id="Fill-75" fill="#AB612B" mask="url(#mask-2)" points="43.4210139 201.474028 118.273471 201.474028 118.273471 189.708011 43.4210139 189.708011"></polygon>
                        <polygon id="Fill-76" fill="#CCCCCC" mask="url(#mask-2)" points="318.419298 336.150797 324.300836 336.150797 324.300836 315.735287 318.419298 315.735287"></polygon>
                        <polygon id="Fill-77" fill="#CCCCCC" mask="url(#mask-2)" points="274.42322 300.11737 284.990574 300.11737 284.990574 279.701861 274.42322 279.701861"></polygon>
                        <path d="M282.569275,283.693923 L276.845108,283.693923 C272.199002,283.693923 268.398578,279.8935 268.398578,275.247394 L268.398578,266.311104 C268.398578,261.664998 272.199002,257.864575 276.845108,257.864575 L282.569275,257.864575 C287.215381,257.864575 291.017275,261.664998 291.017275,266.311104 L291.017275,275.247394 C291.017275,279.8935 287.215381,283.693923 282.569275,283.693923" id="Fill-78" fill="#282828" mask="url(#mask-2)"></path>
                        <path d="M291.017422,316.06047 L291.017422,307.124181 C291.017422,302.479545 287.215528,298.677651 282.569422,298.677651 L276.845255,298.677651 C272.199149,298.677651 268.398725,302.479545 268.398725,307.124181 L268.398725,316.06047 L291.017422,316.06047 Z" id="Fill-79" fill="#494949" mask="url(#mask-2)"></path>
                        <path d="M325.564359,227.927416 L262.40291,227.927416 C257.549428,227.927416 253.578398,223.957856 253.578398,219.102904 L253.578398,163.970291 C253.578398,159.115338 257.549428,155.145778 262.40291,155.145778 L325.564359,155.145778 C330.419311,155.145778 334.388871,159.115338 334.388871,163.970291 L334.388871,219.102904 C334.388871,223.957856 330.419311,227.927416 325.564359,227.927416" id="Fill-80" fill="#BF3733" mask="url(#mask-2)"></path>
                        <path d="M325.597304,227.927416 L266.873114,227.927416 C262.019632,227.927416 258.048602,223.957856 258.048602,219.102904 L258.048602,163.970291 C258.048602,159.115338 262.019632,155.145778 266.873114,155.145778 L325.597304,155.145778 C330.452256,155.145778 334.421816,159.115338 334.421816,163.970291 L334.421816,219.102904 C334.421816,223.957856 330.452256,227.927416 325.597304,227.927416" id="Fill-81" fill="#E64A43" mask="url(#mask-2)"></path>
                        <path d="M289.249284,269.721778 L238.374498,269.721778 C233.728392,269.721778 229.927969,265.919884 229.927969,261.275249 C229.927969,256.629143 233.728392,252.827249 238.374498,252.827249 L289.249284,252.827249 C293.895389,252.827249 297.695813,256.629143 297.695813,261.275249 C297.695813,265.919884 293.895389,269.721778 289.249284,269.721778" id="Fill-82" fill="#282828" mask="url(#mask-2)"></path>
                        <path d="M322.961716,269.721778 L265.833292,269.721778 C261.187187,269.721778 257.386763,265.919884 257.386763,261.275249 C257.386763,256.629143 261.187187,252.827249 265.833292,252.827249 L322.961716,252.827249 C327.607822,252.827249 331.409716,256.629143 331.409716,261.275249 C331.409716,265.919884 327.607822,269.721778 322.961716,269.721778" id="Fill-83" fill="#494949" mask="url(#mask-2)"></path>
                        <path d="M296.235356,279.43389 C293.685072,279.43389 291.599545,277.346892 291.599545,274.796608 L291.599545,192.880129 C291.599545,190.329845 293.685072,188.242848 296.235356,188.242848 C298.78564,188.242848 300.872637,190.329845 300.872637,192.880129 L300.872637,274.796608 C300.872637,277.346892 298.78564,279.43389 296.235356,279.43389" id="Fill-84" fill="#494949" mask="url(#mask-2)"></path>
                        <path d="M292.11475,264.941834 L228.198806,264.941834 C223.5527,264.941834 219.750806,261.13994 219.750806,256.495305 C219.750806,251.849199 223.5527,248.047305 228.198806,248.047305 L292.11475,248.047305 C296.760856,248.047305 300.561279,251.849199 300.561279,256.495305 C300.561279,261.13994 296.760856,264.941834 292.11475,264.941834" id="Fill-85" fill="#BF3733" mask="url(#mask-2)"></path>
                        <path d="M332.314817,264.941834 L260.942159,264.941834 C256.294583,264.941834 252.49563,261.13994 252.49563,256.495305 C252.49563,251.849199 256.294583,248.047305 260.942159,248.047305 L332.314817,248.047305 C336.960923,248.047305 340.762817,251.849199 340.762817,256.495305 C340.762817,261.13994 336.960923,264.941834 332.314817,264.941834" id="Fill-86" fill="#E64A43" mask="url(#mask-2)"></path>
                        <polygon id="Fill-87" fill="#CCCCCC" mask="url(#mask-2)" points="235.07766 327.021838 240.959198 327.021838 240.959198 315.735287 235.07766 315.735287"></polygon>
                        <polygon id="Fill-88" fill="#333333" mask="url(#mask-2)" points="230.230061 343.258942 240.959198 343.258942 240.959198 326.983599 230.230061 326.983599"></polygon>
                        <polygon id="Fill-89" fill="#CCCCCC" mask="url(#mask-2)" points="276.748479 336.150797 282.630017 336.150797 282.630017 315.735287 276.748479 315.735287"></polygon>
                        <polygon id="Fill-90" fill="#333333" mask="url(#mask-2)" points="318.417827 343.186875 329.416111 343.186875 329.416111 326.521783 318.417827 326.521783"></polygon>
                        <polygon id="Fill-91" fill="#333333" mask="url(#mask-2)" points="274.05112 343.186875 285.047933 343.186875 285.047933 326.521783 274.05112 326.521783"></polygon>
                        <polygon id="Fill-92" fill="#CCCCCC" mask="url(#mask-2)" points="235.257092 321.175599 324.300836 321.175599 324.300836 315.736758 235.257092 315.736758"></polygon>
                        <path d="M295.849136,131.474023 C282.705025,131.474023 271.952357,120.719884 271.952357,107.577243 L271.952357,99.6734217 C271.952357,86.5293103 282.705025,75.7766418 295.849136,75.7766418 C308.993248,75.7766418 319.745916,86.5293103 319.745916,99.6734217 L319.745916,107.577243 C319.745916,120.719884 308.993248,131.474023 295.849136,131.474023" id="Fill-93" fill="#AC8457" mask="url(#mask-2)"></path>
                        <path d="M302.096891,129.451739 L294.657827,129.451739 C284.950864,129.451739 277.008802,121.509678 277.008802,111.802714 L277.008802,91.1268813 C277.008802,81.4199175 284.950864,73.4778563 294.657827,73.4778563 L302.096891,73.4778563 C311.803855,73.4778563 319.745916,81.4199175 319.745916,91.1268813 L319.745916,111.802714 C319.745916,121.509678 311.803855,129.451739 302.096891,129.451739" id="Fill-94" fill="#333030" mask="url(#mask-2)"></path>
                        <path d="M299.033315,107.70064 L288.17034,107.70064 C279.270819,107.70064 271.992067,100.420417 271.992067,91.5223666 L271.992067,89.6559822 C271.992067,80.757932 279.270819,73.4777092 288.17034,73.4777092 L299.033315,73.4777092 C307.931365,73.4777092 315.211588,80.757932 315.211588,89.6559822 L315.211588,91.5223666 C315.211588,100.420417 307.931365,107.70064 299.033315,107.70064" id="Fill-95" fill="#333030" mask="url(#mask-2)"></path>
                        <path d="M278.771646,121.695728 C277.475913,121.695728 276.416972,120.636787 276.416972,119.341054 L276.416972,102.156787 C276.416972,100.861054 277.475913,99.8021125 278.771646,99.8021125 C280.065908,99.8021125 281.12632,100.861054 281.12632,102.156787 L281.12632,119.341054 C281.12632,120.636787 280.065908,121.695728 278.771646,121.695728" id="Fill-96" fill="#AC8457" mask="url(#mask-2)"></path>
                        <path d="M281.00513,92.8825181 C281.00513,92.8825181 281.027191,110.305047 281.033074,110.752156 C281.068372,113.333326 280.583024,122.104891 272.385052,122.794674 C272.385052,122.794674 274.991225,131.091187 291.026835,133.520869 C291.026835,133.520869 299.848406,135.140167 310.471648,133.319376 C310.471648,133.319376 322.097943,132.508992 328.713386,123.402095 C328.713386,123.402095 320.553653,122.634362 319.743269,111.593426 C319.719737,111.28751 319.703559,92.7148524 319.693264,92.3927577 L281.00513,92.8825181 Z" id="Fill-97" fill="#333030" mask="url(#mask-2)"></path>
                        <path d="M526.531601,89.1568089 L521.24866,49.2244189 C520.988336,47.2653772 520.010286,45.5725415 518.620426,44.3635833 L510.406275,36.1494329 C507.350052,33.0946808 502.396559,33.0946808 499.341807,36.1494329 C496.287055,39.204185 496.287055,44.157678 499.341807,47.2139008 L506.092559,53.9646529 L507.191211,62.2729315 C506.079323,65.2232602 505.380715,69.4031376 505.380715,74.0565972 C505.380715,76.9878061 505.661629,79.7278173 506.142565,82.0986696 C502.881908,80.7088089 498.359345,78.9277281 493.341139,78.9277281 C487.543434,78.9277281 482.401685,81.3059343 479.111612,82.7105025 L457.704816,82.7105025 L457.704816,76.8363187 C458.96525,76.698068 460.2551,76.5274607 461.575835,76.3009649 C461.575835,76.3009649 474.352258,75.4111599 481.622186,65.4026919 C481.622186,65.4026919 472.610888,64.5202407 471.776972,52.255639 C473.57276,51.3393604 474.874375,48.8008423 474.874375,45.7784468 C474.874375,42.0442072 472.891802,39.0115164 470.426821,38.9365081 C470.723913,35.7582128 471.785796,15.4750708 450.411356,15.4750708 C450.411356,15.4750708 430.013495,11.6187588 430.013495,39.1512379 C430.013495,39.1512379 430.035557,39.1600624 430.054676,39.1674162 C428.101518,39.933678 426.652827,42.5927978 426.652827,45.7784468 C426.652827,48.4963967 427.707356,50.8245972 429.223701,51.9364858 C429.192816,55.2089092 428.311835,64.0113604 419.718231,64.7349705 C419.718231,64.7349705 422.581785,73.8536334 440.207278,76.5230485 C440.207278,76.5230485 441.425061,76.7436613 443.488526,76.9407421 L443.488526,82.7105025 L421.16398,82.7105025 C417.872437,81.3059343 412.730687,78.9277281 406.934453,78.9277281 C402.094208,78.9277281 397.726075,80.5823242 394.494832,81.9486529 C394.956648,79.6130986 395.224325,76.9245638 395.224325,74.0565972 C395.224325,69.8708368 394.656615,66.0689426 393.734453,63.1980345 L394.955178,53.9646529 L401.70593,47.2139008 C404.762153,44.157678 404.762153,39.204185 401.70593,36.1494329 C398.651178,33.0946808 393.697685,33.0946808 390.639991,36.1494329 L382.427311,44.3635833 C381.03598,45.5725415 380.05793,47.2653772 379.797607,49.2244189 L374.516136,89.1568089 C374.373473,89.7642295 374.28964,90.3951822 374.28964,91.0437838 C374.28964,91.0746696 374.294052,91.1026139 374.294052,91.132029 C374.19257,94.4103354 376.179557,97.3783131 379.141651,98.6019788 C379.962331,98.9829036 380.849194,99.2344022 381.783122,99.3314719 C385.370286,101.191973 390.663523,102.852452 396.705373,103.824619 C404.442999,105.068876 411.38642,104.865912 415.253027,103.53194 C416.211958,108.20599 418.840192,113.19331 422.918587,117.558503 L424.652604,171.638057 L422.06408,278.688218 L439.774877,278.688218 L445.418153,192.456553 L457.000325,192.456553 L461.171378,278.688218 L478.882175,278.688218 L476.336303,173.458848 L478.12915,117.558503 C482.232548,113.166837 484.872548,108.144218 485.8153,103.446636 C489.62749,104.858558 496.713573,105.09682 504.621807,103.824619 C510.723958,102.843628 516.064258,101.156675 519.651423,99.2741125 C520.442687,99.1535109 521.201596,98.9299565 521.904615,98.6019788 C524.86671,97.3783131 526.856637,94.4103354 526.752214,91.132029 C526.753685,91.1026139 526.756626,91.0746696 526.756626,91.0437838 C526.756626,90.3951822 526.675735,89.7642295 526.531601,89.1568089" id="Fill-98" fill="#D8D8D8" mask="url(#mask-2)"></path>
                        <path d="M105.066411,30.6685281 C105.066411,47.5777649 91.3590017,61.2851744 74.4497649,61.2851744 C57.5405281,61.2851744 43.8316479,47.5777649 43.8316479,30.6685281 C43.8316479,13.7592914 57.5405281,0.0518818942 74.4497649,0.0518818942 C91.3590017,0.0518818942 105.066411,13.7592914 105.066411,30.6685281" id="Fill-99" fill="#BF3733" mask="url(#mask-2)"></path>
                        <path d="M108.467525,30.6685281 C108.467525,47.5777649 94.7601159,61.2851744 77.8523499,61.2851744 C60.9431131,61.2851744 47.2342329,47.5777649 47.2342329,30.6685281 C47.2342329,13.7592914 60.9431131,0.0518818942 77.8523499,0.0518818942 C94.7601159,0.0518818942 108.467525,13.7592914 108.467525,30.6685281" id="Fill-100" fill="#E64A43" mask="url(#mask-2)"></path>
                        <path d="M102.644818,30.6685281 C102.644818,44.3627008 91.5435811,55.4609961 77.8523499,55.4609961 C64.1581772,55.4609961 53.0569404,44.3627008 53.0569404,30.6685281 C53.0569404,16.9758262 64.1581772,5.87606017 77.8523499,5.87606017 C91.5435811,5.87606017 102.644818,16.9758262 102.644818,30.6685281" id="Fill-101" fill="#D3D7DA" mask="url(#mask-2)"></path>
                        <path d="M99.7464067,30.6685281 C99.7464067,44.3627008 89.2952423,55.4609961 76.4026295,55.4609961 C63.508546,55.4609961 53.0573816,44.3627008 53.0573816,30.6685281 C53.0573816,16.9758262 63.508546,5.87606017 76.4026295,5.87606017 C89.2952423,5.87606017 99.7464067,16.9758262 99.7464067,30.6685281" id="Fill-102" fill="#FFFFFF" mask="url(#mask-2)"></path>
                        <path d="M77.9795699,45.0743978 C77.6398262,45.0743978 77.3603833,45.3523699 77.3603833,45.6935844 L77.3603833,50.6559019 C77.3603833,50.9956457 77.6398262,51.2750886 77.9795699,51.2750886 C78.3193136,51.2750886 78.5987565,50.9956457 78.5987565,50.6559019 L78.5987565,45.6935844 C78.5987565,45.3523699 78.3193136,45.0743978 77.9795699,45.0743978" id="Fill-103" fill="#494949" mask="url(#mask-2)"></path>
                        <path d="M77.9795699,9.6644234 C77.6398262,9.6644234 77.3603833,9.94239554 77.3603833,10.28361 L77.3603833,15.2459276 C77.3603833,15.5856713 77.6398262,15.8651142 77.9795699,15.8651142 C78.3193136,15.8651142 78.5987565,15.5856713 78.5987565,15.2459276 L78.5987565,10.28361 C78.5987565,9.94239554 78.3193136,9.6644234 77.9795699,9.6644234" id="Fill-104" fill="#494949" mask="url(#mask-2)"></path>
                        <path d="M92.5851677,30.4689471 C92.5851677,30.8086908 92.8631398,31.0881337 93.2028836,31.0881337 L98.1666719,31.0881337 C98.5064156,31.0881337 98.7843877,30.8086908 98.7843877,30.4689471 C98.7843877,30.1306741 98.5064156,29.8512312 98.1666719,29.8512312 L93.2028836,29.8512312 C92.8631398,29.8512312 92.5851677,30.1306741 92.5851677,30.4689471" id="Fill-105" fill="#494949" mask="url(#mask-2)"></path>
                        <path d="M77.6133526,30.7332412 C77.9501549,31.0700435 78.5002162,31.0700435 78.8355476,30.7332412 L84.8141549,24.7561047 C85.1509571,24.4193025 85.1509571,23.8692412 84.8141549,23.532439 C84.4788234,23.1971075 83.9287621,23.1971075 83.5919599,23.532439 L77.6133526,29.5110462 C77.2765504,29.8463777 77.2765504,30.396439 77.6133526,30.7332412" id="Fill-106" fill="#494949" mask="url(#mask-2)"></path>
                        <path d="M60.5876323,23.0663577 C60.4817382,23.336976 60.6126351,23.6414217 60.8817827,23.7487866 L77.9969248,30.551015 C78.2675432,30.6583799 78.5734596,30.5260123 78.6793538,30.2568646 C78.7867187,29.987717 78.654351,29.6818006 78.3866741,29.5744357 L61.2700613,22.7722072 C60.9994429,22.6663131 60.6949972,22.7957393 60.5876323,23.0663577" id="Fill-107" fill="#494949" mask="url(#mask-2)"></path>
                        <path d="M57.1750462,30.4689471 C57.1750462,30.8086908 57.4515476,31.0881337 57.7927621,31.0881337 L62.7550797,31.0881337 C63.0948234,31.0881337 63.3742663,30.8086908 63.3742663,30.4689471 C63.3742663,30.1306741 63.0948234,29.8512312 62.7550797,29.8512312 L57.7927621,29.8512312 C57.4515476,29.8512312 57.1750462,30.1306741 57.1750462,30.4689471" id="Fill-108" fill="#494949" mask="url(#mask-2)"></path>
                    </g>
                </g>
            </g>
        </g>
    </g>
</svg>