<?xml version="1.0" encoding="UTF-8" ?>
<!DOCTYPE svg PUBLIC "-//W3C//DTD SVG 1.1//EN" "http://www.w3.org/Graphics/SVG/1.1/DTD/svg11.dtd">
<svg width="230pt" height="198pt" viewBox="0 0 230 198" version="1.1" xmlns="http://www.w3.org/2000/svg">
<g id="#4c240099">
<path fill="#4c2400" opacity="0.60" d=" M 115.58 0.00 L 116.97 0.00 C 117.04 0.34 117.19 1.02 117.26 1.36 C 116.79 3.17 115.99 4.88 115.10 6.52 C 114.14 5.75 113.18 4.98 112.22 4.20 C 112.06 4.68 111.73 5.65 111.57 6.13 C 111.35 5.08 111.12 4.04 110.87 3.00 C 112.45 2.01 113.99 0.98 115.58 0.00 Z" />
</g>
<g id="#bb8d79c0">
<path fill="#bb8d79" opacity="0.75" d=" M 100.15 2.25 C 101.04 2.99 102.01 3.60 103.06 4.07 C 102.77 5.39 102.40 6.70 102.03 8.00 C 102.72 6.77 103.58 5.68 104.62 4.72 C 104.69 6.96 103.98 9.09 103.18 11.14 C 103.25 10.57 103.40 9.42 103.47 8.84 C 102.91 9.06 101.77 9.50 101.21 9.72 C 99.98 9.03 98.75 8.35 97.52 7.67 C 97.17 5.37 98.25 3.48 100.15 2.25 Z" />
</g>
<g id="#7f3d01ff">
<path fill="#7f3d01" opacity="1.00" d=" M 117.26 1.36 L 118.33 2.39 C 118.28 4.37 117.81 6.31 117.48 8.26 C 118.35 7.15 119.15 5.97 120.21 5.02 C 119.92 8.39 119.04 11.66 118.01 14.86 C 120.91 21.61 123.51 28.53 126.87 35.06 C 129.67 38.25 133.19 40.71 136.21 43.68 C 134.11 45.73 132.73 48.35 131.32 50.89 C 127.53 46.94 123.67 43.01 120.44 38.58 C 115.57 31.71 116.75 22.75 113.85 15.16 C 112.30 12.39 112.07 9.19 111.57 6.13 C 111.73 5.65 112.06 4.68 112.22 4.20 C 113.18 4.98 114.14 5.75 115.10 6.52 C 115.99 4.88 116.79 3.17 117.26 1.36 Z" />
<path fill="#7f3d01" opacity="1.00" d=" M 146.11 29.21 C 148.08 27.02 151.10 26.26 153.68 25.02 C 155.10 26.64 156.79 28.08 157.80 30.02 C 157.95 36.13 158.46 42.25 158.06 48.37 C 158.06 48.81 158.07 49.69 158.07 50.13 C 159.43 50.76 160.84 51.29 162.23 51.89 C 159.93 54.32 157.10 57.33 153.39 56.51 C 149.56 55.66 148.48 51.34 147.67 48.06 C 148.14 48.00 149.09 47.89 149.57 47.83 C 149.39 47.07 149.21 46.30 149.03 45.54 L 148.11 45.40 C 144.55 40.88 143.65 34.44 146.11 29.21 Z" />
<path fill="#7f3d01" opacity="1.00" d=" M 167.57 74.96 C 170.23 74.92 172.88 74.65 175.53 74.35 C 176.45 78.70 178.69 83.15 177.55 87.66 C 175.80 91.31 172.02 93.26 168.87 95.52 C 166.01 96.82 163.17 98.15 160.43 99.67 C 159.95 99.73 158.99 99.84 158.50 99.90 C 156.15 99.67 153.79 99.71 151.43 99.85 L 149.90 99.67 L 149.52 99.63 C 149.90 98.93 150.67 97.51 151.06 96.80 C 152.02 96.45 152.99 96.11 153.95 95.76 C 156.14 96.19 158.39 96.97 160.64 96.50 C 162.21 95.55 163.50 94.20 164.82 92.95 C 167.18 90.49 169.60 88.03 171.26 85.03 C 169.66 81.82 168.62 78.38 167.57 74.96 Z" />
<path fill="#7f3d01" opacity="1.00" d=" M 148.17 166.56 C 149.72 166.57 151.28 166.58 152.83 166.55 C 152.84 168.53 152.84 170.52 153.16 172.48 C 151.58 172.86 150.01 173.21 148.45 173.65 C 148.42 171.28 148.31 168.92 148.17 166.56 Z" />
</g>
<g id="#f9bca2ff">
<path fill="#f9bca2" opacity="1.00" d=" M 95.25 7.13 C 95.57 7.13 96.21 7.13 96.53 7.13 C 96.69 7.98 97.01 9.68 97.17 10.53 C 97.26 9.81 97.43 8.39 97.52 7.67 C 98.75 8.35 99.98 9.03 101.21 9.72 C 101.77 9.50 102.91 9.06 103.47 8.84 C 103.40 9.42 103.25 10.57 103.18 11.14 C 102.47 13.59 101.93 16.26 99.64 17.75 C 98.46 23.60 97.87 29.57 96.63 35.41 C 95.67 40.16 91.83 43.39 88.93 46.99 C 87.69 44.65 86.20 42.46 84.67 40.30 C 86.17 38.88 87.81 37.47 88.49 35.44 C 91.08 29.01 93.76 22.62 96.09 16.09 C 95.63 13.13 95.46 10.12 95.25 7.13 Z" />
<path fill="#f9bca2" opacity="1.00" d=" M 69.54 44.62 C 65.62 41.39 64.91 32.08 71.44 31.68 L 72.04 31.49 C 72.04 35.87 73.02 41.22 69.54 44.62 Z" />
<path fill="#f9bca2" opacity="1.00" d=" M 33.20 81.40 C 34.97 81.86 36.75 82.27 38.52 82.73 C 37.28 87.69 36.35 92.74 35.72 97.81 C 33.49 98.50 30.57 97.62 30.40 94.96 C 30.17 90.29 31.99 85.84 33.20 81.40 Z" />
<path fill="#f9bca2" opacity="1.00" d=" M 85.06 163.24 C 86.59 163.04 88.11 162.84 89.64 162.64 C 89.69 167.04 89.71 171.45 89.67 175.86 C 88.10 175.88 86.55 176.07 85.00 176.27 C 85.48 171.94 85.00 167.58 85.06 163.24 Z" />
<path fill="#f9bca2" opacity="1.00" d=" M 58.19 163.65 C 59.68 164.19 61.16 164.74 62.66 165.24 C 60.97 167.58 59.35 169.97 57.63 172.30 C 56.45 171.25 55.21 170.29 53.98 169.30 C 55.62 167.60 56.85 165.57 58.19 163.65 Z" />
</g>
<g id="#2c294cff">
<path fill="#2c294c" opacity="1.00" d=" M 149.67 19.70 C 151.40 18.69 153.31 19.93 155.03 20.32 C 157.19 20.40 159.79 19.79 161.49 21.53 C 164.05 23.75 163.53 27.41 164.64 30.31 C 167.01 34.84 166.30 40.13 167.17 45.03 C 166.30 49.24 161.31 48.74 158.06 48.37 C 158.46 42.25 157.95 36.13 157.80 30.02 C 156.79 28.08 155.10 26.64 153.68 25.02 C 151.10 26.26 148.08 27.02 146.11 29.21 C 143.65 34.44 144.55 40.88 148.11 45.40 C 146.44 45.26 144.76 45.22 143.08 45.18 C 144.53 45.58 145.98 45.96 147.43 46.36 C 147.49 46.79 147.61 47.64 147.67 48.06 C 145.87 47.28 144.05 46.55 142.33 45.63 C 141.11 43.89 139.76 42.14 139.26 40.04 C 139.23 37.41 140.89 35.22 141.81 32.86 C 142.99 30.25 142.53 27.21 143.67 24.59 C 145.19 22.47 147.46 21.01 149.67 19.70 Z" />
<path fill="#2c294c" opacity="1.00" d=" M 192.88 106.76 C 193.47 106.76 194.66 106.76 195.25 106.76 C 195.36 130.49 195.35 154.23 195.25 177.97 C 201.21 180.49 207.29 182.69 213.30 185.10 C 213.43 158.98 213.28 132.87 213.37 106.76 C 213.96 106.76 215.14 106.76 215.73 106.75 C 215.97 134.08 215.49 161.43 215.97 188.75 C 208.21 186.05 200.71 182.66 192.93 179.99 C 192.71 155.58 192.81 131.17 192.88 106.76 Z" />
</g>
<g id="#002235ff">
<path fill="#002235" opacity="1.00" d=" M 55.14 23.09 C 58.10 20.46 62.35 21.18 65.91 21.87 L 66.29 22.65 C 66.75 22.71 67.68 22.81 68.14 22.87 C 71.54 24.24 74.39 28.44 71.44 31.68 C 64.91 32.08 65.62 41.39 69.54 44.62 C 70.77 45.65 72.10 46.55 73.34 47.56 C 74.84 49.07 76.58 50.73 76.73 53.00 C 76.66 54.99 74.98 56.91 72.93 56.91 C 70.58 56.84 68.29 56.06 65.94 56.17 C 62.26 56.81 58.82 59.45 54.96 58.35 C 52.17 57.44 51.38 54.25 49.75 52.15 C 48.71 50.56 46.66 49.12 47.25 46.96 C 48.42 41.87 51.12 37.24 51.95 32.04 C 52.80 29.03 52.51 25.27 55.14 23.09 Z" />
</g>
<g id="#363739a2">
<path fill="#363739" opacity="0.64" d=" M 65.91 21.87 C 66.47 22.12 67.58 22.62 68.14 22.87 C 67.68 22.81 66.75 22.71 66.29 22.65 L 65.91 21.87 Z" />
</g>
<g id="#fc7f6bff">
<path fill="#fc7f6b" opacity="1.00" d=" M 82.43 40.39 C 82.99 40.37 84.11 40.32 84.67 40.30 C 86.20 42.46 87.69 44.65 88.93 46.99 C 89.35 48.34 90.12 49.84 89.28 51.20 C 87.12 56.04 83.69 60.14 80.21 64.07 C 78.18 66.29 77.50 69.31 76.68 72.12 C 74.44 80.11 74.62 88.49 73.64 96.68 C 73.50 97.67 73.35 98.67 73.20 99.67 C 72.83 102.02 72.49 104.39 72.39 106.77 C 72.74 109.84 73.34 112.92 74.77 115.68 C 75.60 118.57 75.77 121.57 76.00 124.55 C 75.43 124.50 74.28 124.39 73.71 124.34 C 73.24 120.97 74.21 116.39 70.56 114.50 C 60.00 108.02 46.67 108.13 35.05 111.37 C 35.08 109.83 35.11 108.29 35.16 106.76 C 35.24 104.41 35.41 102.07 35.58 99.73 C 35.60 99.40 35.64 98.74 35.66 98.41 L 35.72 97.81 C 36.35 92.74 37.28 87.69 38.52 82.73 C 36.75 82.27 34.97 81.86 33.20 81.40 C 31.02 80.62 29.51 78.44 30.45 76.10 C 32.05 71.32 35.24 67.27 37.87 63.02 C 41.07 58.74 44.32 53.74 49.75 52.15 C 51.38 54.25 52.17 57.44 54.96 58.35 C 58.82 59.45 62.26 56.81 65.94 56.17 C 68.29 56.06 70.58 56.84 72.93 56.91 C 74.98 56.91 76.66 54.99 76.73 53.00 C 76.58 50.73 74.84 49.07 73.34 47.56 C 76.36 45.16 79.53 42.94 82.43 40.39 Z" />
</g>
<g id="#d0effcff">
<path fill="#d0effc" opacity="1.00" d=" M 136.21 43.68 C 138.43 43.59 140.42 44.62 142.33 45.63 C 144.05 46.55 145.87 47.28 147.67 48.06 C 148.48 51.34 149.56 55.66 153.39 56.51 C 157.10 57.33 159.93 54.32 162.23 51.89 C 171.04 55.39 175.25 65.45 175.53 74.35 C 172.88 74.65 170.23 74.92 167.57 74.96 C 167.21 74.94 166.50 74.90 166.15 74.88 C 165.14 79.46 166.02 84.45 163.96 88.75 C 162.60 89.26 161.22 89.72 159.83 90.13 C 158.07 88.41 155.08 88.73 153.24 90.15 C 149.44 89.88 145.62 89.71 141.87 89.01 C 141.76 84.72 142.21 80.39 141.65 76.11 C 140.58 74.78 138.66 75.30 137.17 75.11 C 137.26 72.10 137.53 68.95 136.41 66.09 C 134.79 62.09 131.54 59.01 129.92 55.01 C 129.53 53.48 130.76 52.21 131.32 50.89 C 132.73 48.35 134.11 45.73 136.21 43.68 M 136.52 63.38 C 136.77 64.67 137.02 65.97 137.27 67.27 C 139.43 66.83 139.07 64.47 138.43 62.93 C 138.91 61.58 139.40 60.23 139.85 58.87 C 137.64 59.21 137.41 61.76 136.52 63.38 M 164.48 72.65 C 164.90 72.80 165.72 73.12 166.14 73.28 C 164.75 68.94 163.30 64.61 163.69 59.96 C 160.06 63.40 163.36 68.73 164.48 72.65 Z" />
<path fill="#d0effc" opacity="1.00" d=" M 112.55 99.64 C 125.00 99.51 137.45 99.67 149.90 99.67 L 151.43 99.85 C 150.03 100.41 148.59 100.97 147.05 100.87 C 137.04 100.81 127.04 100.65 117.03 100.78 C 115.45 100.82 113.83 100.66 112.55 99.64 Z" />
</g>
<g id="#74d8f2ff">
<path fill="#74d8f2" opacity="1.00" d=" M 136.52 63.38 C 137.41 61.76 137.64 59.21 139.85 58.87 C 139.40 60.23 138.91 61.58 138.43 62.93 C 139.07 64.47 139.43 66.83 137.27 67.27 C 137.02 65.97 136.77 64.67 136.52 63.38 Z" />
</g>
<g id="#75d8f2ff">
<path fill="#75d8f2" opacity="1.00" d=" M 164.48 72.65 C 163.36 68.73 160.06 63.40 163.69 59.96 C 163.30 64.61 164.75 68.94 166.14 73.28 C 165.72 73.12 164.90 72.80 164.48 72.65 Z" />
</g>
<g id="#30bf9bff">
<path fill="#30bf9b" opacity="1.00" d=" M 199.80 70.93 C 199.63 69.05 202.36 68.26 203.15 70.00 C 205.00 71.96 203.42 74.65 203.28 76.93 C 204.84 76.33 206.25 75.11 208.00 75.12 C 209.52 74.96 210.07 76.75 209.72 77.94 C 209.47 80.01 207.30 80.98 206.00 82.31 C 208.17 83.05 210.89 82.86 212.19 85.09 C 210.89 88.57 207.20 86.81 204.46 86.77 C 199.87 86.79 195.28 86.98 190.69 86.88 C 188.54 86.12 184.79 85.92 184.64 83.07 C 185.66 79.71 189.59 81.60 191.94 82.06 C 192.10 79.41 189.03 77.48 190.03 74.90 C 190.55 74.72 191.58 74.37 192.10 74.19 C 194.14 76.37 195.75 78.96 198.19 80.77 C 197.95 79.14 197.54 77.56 197.21 75.95 C 197.51 74.00 199.79 73.02 199.80 70.93 Z" />
</g>
<g id="#455d73ff">
<path fill="#455d73" opacity="1.00" d=" M 76.87 75.85 C 78.81 75.02 80.96 75.25 83.01 75.23 C 89.04 75.35 95.07 75.15 101.10 75.29 C 102.60 75.09 104.18 76.28 103.92 77.89 C 104.05 85.16 103.54 92.46 104.24 99.71 C 93.98 99.55 83.71 99.39 73.46 99.81 L 73.20 99.67 C 73.35 98.67 73.50 97.67 73.64 96.68 C 74.22 96.54 75.38 96.27 75.96 96.13 C 76.23 89.79 75.57 83.46 75.76 77.12 L 76.52 76.22 C 76.52 82.60 76.07 88.99 76.52 95.37 C 79.17 96.50 82.11 96.15 84.92 96.19 C 89.94 96.09 94.95 96.29 99.97 96.16 C 101.28 96.21 103.26 95.73 103.20 94.05 C 103.53 89.71 103.21 85.36 103.35 81.02 C 103.15 79.28 103.86 76.93 101.99 75.90 C 99.09 75.54 96.17 75.76 93.26 75.75 C 87.80 75.82 82.33 75.66 76.87 75.85 Z" />
</g>
<g id="#5b7084ff">
<path fill="#5b7084" opacity="1.00" d=" M 115.27 75.31 C 122.55 74.86 129.87 75.31 137.17 75.11 C 138.66 75.30 140.58 74.78 141.65 76.11 C 142.21 80.39 141.76 84.72 141.87 89.01 C 141.87 91.38 141.88 93.74 141.90 96.11 C 144.96 96.06 148.04 96.19 151.06 96.80 C 150.67 97.51 149.90 98.93 149.52 99.63 C 137.67 99.13 125.82 99.47 113.96 99.28 C 113.78 91.57 113.55 83.81 114.02 76.12 C 114.34 75.92 114.96 75.51 115.27 75.31 M 125.18 85.15 C 123.00 86.38 125.28 89.86 127.20 88.30 C 129.30 87.17 127.25 83.95 125.18 85.15 Z" />
<path fill="#5b7084" opacity="1.00" d=" M 130.28 106.79 C 131.64 106.79 133.00 106.79 134.36 106.79 C 130.95 112.42 125.66 116.61 122.13 122.15 C 121.26 123.39 121.38 124.96 121.26 126.39 C 118.63 124.05 119.80 120.12 119.57 117.02 C 119.67 114.32 119.44 109.85 123.18 109.72 C 125.68 108.98 130.25 110.66 130.28 106.79 Z" />
<path fill="#5b7084" opacity="1.00" d=" M 167.18 106.75 C 169.69 106.75 172.19 106.75 174.69 106.75 C 174.75 112.38 174.97 118.03 174.48 123.63 C 174.02 126.27 171.22 127.02 168.95 127.24 L 167.68 127.27 C 166.51 127.27 165.35 127.27 164.19 127.26 L 162.95 127.26 C 162.19 127.26 160.68 127.27 159.92 127.27 C 163.22 120.80 166.45 114.08 167.18 106.75 Z" />
<path fill="#5b7084" opacity="1.00" d=" M 35.05 111.37 C 46.67 108.13 60.00 108.02 70.56 114.50 C 74.21 116.39 73.24 120.97 73.71 124.34 C 74.28 124.39 75.43 124.50 76.00 124.55 C 78.39 124.99 81.83 124.35 83.04 127.03 C 83.90 131.68 83.56 136.45 83.19 141.14 C 80.48 141.77 77.71 142.01 74.94 142.03 C 74.53 142.04 73.71 142.06 73.31 142.07 C 71.91 142.09 70.51 142.12 69.11 142.15 L 67.82 142.20 C 63.95 142.27 60.09 142.43 56.22 142.55 C 51.14 142.61 46.06 142.59 40.98 142.48 C 40.09 142.42 39.20 142.39 38.31 142.38 C 37.80 142.33 36.77 142.25 36.25 142.20 C 35.72 142.27 34.67 142.40 34.14 142.47 C 31.82 142.24 28.88 141.29 28.71 138.52 C 28.14 131.52 28.14 124.44 28.75 117.44 C 28.86 114.01 32.33 112.48 35.05 111.37 Z" />
</g>
<g id="#eaf0f4ff">
<path fill="#eaf0f4" opacity="1.00" d=" M 76.87 75.85 C 82.33 75.66 87.80 75.82 93.26 75.75 C 91.67 79.54 90.68 83.75 87.80 86.84 C 85.63 89.26 83.43 91.83 82.85 95.15 C 80.73 95.21 78.62 95.27 76.52 95.37 C 76.07 88.99 76.52 82.60 76.52 76.22 L 76.87 75.85 Z" />
<path fill="#eaf0f4" opacity="1.00" d=" M 125.18 85.15 C 127.25 83.95 129.30 87.17 127.20 88.30 C 125.28 89.86 123.00 86.38 125.18 85.15 Z" />
</g>
<g id="#d6dfe5ff">
<path fill="#d6dfe5" opacity="1.00" d=" M 93.26 75.75 C 96.17 75.76 99.09 75.54 101.99 75.90 C 103.86 76.93 103.15 79.28 103.35 81.02 C 103.21 85.36 103.53 89.71 103.20 94.05 C 103.26 95.73 101.28 96.21 99.97 96.16 C 94.95 96.29 89.94 96.09 84.92 96.19 C 82.11 96.15 79.17 96.50 76.52 95.37 C 78.62 95.27 80.73 95.21 82.85 95.15 C 83.43 91.83 85.63 89.26 87.80 86.84 C 90.68 83.75 91.67 79.54 93.26 75.75 Z" />
<path fill="#d6dfe5" opacity="1.00" d=" M 0.00 99.61 C 11.86 99.66 23.72 99.47 35.58 99.73 C 35.41 102.07 35.24 104.41 35.16 106.76 C 29.48 106.74 23.80 106.74 18.13 106.76 C 17.54 106.76 16.38 106.76 15.80 106.76 C 10.53 106.74 5.27 106.76 0.00 106.73 L 0.00 99.61 Z" />
<path fill="#d6dfe5" opacity="1.00" d=" M 73.20 99.67 L 73.46 99.81 C 75.03 101.12 77.11 101.01 79.02 101.05 C 86.02 101.09 93.02 100.97 100.02 101.06 C 101.49 100.95 103.37 101.28 104.24 99.71 C 107.00 99.55 109.77 99.61 112.55 99.64 C 113.83 100.66 115.45 100.82 117.03 100.78 C 127.04 100.65 137.04 100.81 147.05 100.87 C 148.59 100.97 150.03 100.41 151.43 99.85 C 153.79 99.71 156.15 99.67 158.50 99.90 C 161.06 101.54 164.14 101.14 167.03 101.12 C 169.60 101.01 172.41 101.36 174.58 99.64 C 181.43 99.64 188.29 99.44 195.13 99.77 C 196.32 101.26 198.96 101.74 199.85 99.68 C 209.90 99.54 219.95 99.62 230.00 99.62 L 230.00 106.72 C 225.24 106.76 220.48 106.74 215.73 106.75 C 215.14 106.76 213.96 106.76 213.37 106.76 C 207.33 106.74 201.29 106.74 195.25 106.76 C 194.66 106.76 193.47 106.76 192.88 106.76 C 186.82 106.74 180.76 106.75 174.69 106.75 C 172.19 106.75 169.69 106.75 167.18 106.75 C 156.24 106.77 145.30 106.70 134.36 106.79 C 133.00 106.79 131.64 106.79 130.28 106.79 C 110.99 106.71 91.69 106.74 72.39 106.77 C 72.49 104.39 72.83 102.02 73.20 99.67 Z" />
</g>
<g id="#013e68ff">
<path fill="#013e68" opacity="1.00" d=" M 190.69 86.88 C 195.28 86.98 199.87 86.79 204.46 86.77 C 204.34 89.67 204.45 92.68 203.48 95.45 C 201.55 100.23 193.43 100.02 191.77 95.12 C 191.14 92.42 191.15 89.61 190.69 86.88 Z" />
</g>
<g id="#004b89ff">
<path fill="#004b89" opacity="1.00" d=" M 141.87 89.01 C 145.62 89.71 149.44 89.88 153.24 90.15 C 155.41 90.45 157.69 90.89 159.83 90.13 C 161.22 89.72 162.60 89.26 163.96 88.75 C 164.29 90.14 164.57 91.54 164.82 92.95 C 163.50 94.20 162.21 95.55 160.64 96.50 C 158.39 96.97 156.14 96.19 153.95 95.76 C 152.99 96.11 152.02 96.45 151.06 96.80 C 148.04 96.19 144.96 96.06 141.90 96.11 C 141.88 93.74 141.87 91.38 141.87 89.01 Z" />
<path fill="#004b89" opacity="1.00" d=" M 134.36 106.79 C 145.30 106.70 156.24 106.77 167.18 106.75 C 166.45 114.08 163.22 120.80 159.92 127.27 C 158.52 130.16 156.68 132.88 155.85 136.02 C 154.82 145.36 156.69 154.73 156.21 164.08 C 156.26 165.87 154.23 166.39 152.83 166.55 C 151.28 166.58 149.72 166.57 148.17 166.56 C 146.21 166.62 143.23 166.69 143.12 164.00 C 142.01 156.40 141.63 148.70 141.20 141.03 C 141.20 136.34 140.58 131.54 141.77 126.94 C 143.23 124.66 144.37 122.19 145.16 119.60 C 142.67 121.55 140.72 124.13 139.71 127.15 C 137.12 138.85 137.47 151.02 137.43 162.95 C 137.72 164.52 136.41 165.30 135.17 165.77 C 133.22 165.72 131.27 165.65 129.32 165.69 C 127.16 166.01 124.26 165.71 123.89 163.02 C 123.10 150.81 121.97 138.61 121.26 126.39 C 121.38 124.96 121.26 123.39 122.13 122.15 C 125.66 116.61 130.95 112.42 134.36 106.79 Z" />
</g>
<g id="#f3ffffff">
<path fill="#f3ffff" opacity="1.00" d=" M 153.24 90.15 C 155.08 88.73 158.07 88.41 159.83 90.13 C 157.69 90.89 155.41 90.45 153.24 90.15 Z" />
</g>
<g id="#465d73ff">
<path fill="#465d73" opacity="1.00" d=" M 160.43 99.67 C 163.17 98.15 166.01 96.82 168.87 95.52 L 168.14 96.05 C 170.15 96.94 172.19 97.90 173.65 99.62 C 169.24 99.51 164.84 99.73 160.43 99.67 Z" />
</g>
<g id="#e8eff2fd">
<path fill="#e8eff2" opacity="1.00" d=" M 73.46 99.81 C 83.71 99.39 93.98 99.55 104.24 99.71 C 103.37 101.28 101.49 100.95 100.02 101.06 C 93.02 100.97 86.02 101.09 79.02 101.05 C 77.11 101.01 75.03 101.12 73.46 99.81 Z" />
</g>
<g id="#ebf2f5ff">
<path fill="#ebf2f5" opacity="1.00" d=" M 158.50 99.90 C 158.99 99.84 159.95 99.73 160.43 99.67 C 164.84 99.73 169.24 99.51 173.65 99.62 L 174.58 99.64 C 172.41 101.36 169.60 101.01 167.03 101.12 C 164.14 101.14 161.06 101.54 158.50 99.90 Z" />
</g>
<g id="#f5f7f8ff">
<path fill="#f5f7f8" opacity="1.00" d=" M 195.13 99.77 C 196.69 99.47 198.28 99.41 199.85 99.68 C 198.96 101.74 196.32 101.26 195.13 99.77 Z" />
</g>
<g id="#022e4cff">
<path fill="#022e4c" opacity="1.00" d=" M 15.80 106.76 C 16.38 106.76 17.54 106.76 18.13 106.76 C 18.25 130.50 18.19 154.24 18.16 177.97 C 21.20 179.18 24.25 180.37 27.36 181.42 C 28.07 182.28 28.55 183.26 28.78 184.38 L 27.12 184.06 C 23.29 182.77 19.58 181.18 15.77 179.86 C 15.67 155.49 15.64 131.13 15.80 106.76 Z" />
<path fill="#022e4c" opacity="1.00" d=" M 36.25 142.20 C 36.77 142.25 37.80 142.33 38.31 142.38 C 38.49 142.55 38.86 142.89 39.04 143.05 C 37.95 158.27 39.14 173.58 38.49 188.82 C 35.94 187.63 33.35 186.53 30.66 185.70 C 29.99 184.78 29.72 183.74 29.83 182.61 C 31.96 183.37 34.07 184.17 36.18 184.99 C 36.27 170.73 36.20 156.47 36.25 142.21 L 36.25 142.20 Z" />
<path fill="#022e4c" opacity="1.00" d=" M 50.36 173.81 C 51.20 172.04 52.45 170.52 53.98 169.30 C 55.21 170.29 56.45 171.25 57.63 172.30 C 59.45 175.23 61.21 178.62 60.16 182.17 C 55.67 181.23 53.03 177.15 50.36 173.81 Z" />
<path fill="#022e4c" opacity="1.00" d=" M 130.05 172.45 C 131.49 172.39 132.93 172.35 134.37 172.33 L 135.19 172.31 C 135.52 173.96 135.68 175.64 135.54 177.33 C 131.16 178.23 126.33 179.23 122.12 177.13 C 123.70 174.51 126.47 173.23 129.36 172.64 C 129.53 172.59 129.87 172.50 130.05 172.45 Z" />
<path fill="#022e4c" opacity="1.00" d=" M 148.45 173.65 C 150.01 173.21 151.58 172.86 153.16 172.48 C 153.65 174.06 154.18 175.62 154.66 177.21 C 150.79 179.16 146.63 181.05 142.17 180.68 C 140.99 177.10 145.84 175.03 148.45 173.65 Z" />
<path fill="#022e4c" opacity="1.00" d=" M 85.00 176.27 C 86.55 176.07 88.10 175.88 89.67 175.86 C 91.81 176.77 94.17 177.47 95.81 179.21 C 96.56 179.87 97.60 181.63 96.12 182.15 C 92.34 183.50 88.06 182.73 84.34 181.44 C 84.42 179.70 84.64 177.97 85.00 176.27 Z" />
</g>
<g id="#e95e41ff">
<path fill="#e95e41" opacity="1.00" d=" M 74.77 115.68 C 78.63 117.27 82.65 118.57 86.20 120.81 C 89.95 123.19 91.50 127.68 92.15 131.86 C 93.24 139.25 94.02 146.69 95.20 154.07 C 95.44 156.25 96.00 158.68 94.80 160.70 C 93.56 162.25 91.43 162.28 89.64 162.64 C 88.11 162.84 86.59 163.04 85.06 163.24 C 83.01 163.25 79.63 164.65 78.85 161.82 C 77.12 156.61 76.20 151.15 74.98 145.80 C 74.97 144.54 74.95 143.29 74.94 142.03 C 77.71 142.01 80.48 141.77 83.19 141.14 C 83.56 136.45 83.90 131.68 83.04 127.03 C 81.83 124.35 78.39 124.99 76.00 124.55 C 75.77 121.57 75.60 118.57 74.77 115.68 Z" />
<path fill="#e95e41" opacity="1.00" d=" M 56.22 142.55 C 60.09 142.43 63.95 142.27 67.82 142.20 C 66.36 149.98 65.62 157.87 64.45 165.70 C 64.00 165.58 63.11 165.35 62.66 165.24 C 61.16 164.74 59.68 164.19 58.19 163.65 C 56.08 162.54 52.80 162.52 51.83 160.02 C 52.54 154.03 54.60 148.32 56.22 142.55 Z" />
<path fill="#e95e41" opacity="1.00" d=" M 69.11 142.15 C 70.51 142.12 71.91 142.09 73.31 142.07 C 73.49 144.66 73.63 147.27 73.51 149.87 C 70.99 155.15 70.79 161.88 66.06 165.85 C 66.84 157.92 67.96 150.04 69.11 142.15 Z" />
</g>
<g id="#5d7184fe">
<path fill="#5d7184" opacity="1.00" d=" M 139.71 127.15 C 140.72 124.13 142.67 121.55 145.16 119.60 C 144.37 122.19 143.23 124.66 141.77 126.94 L 139.71 127.15 Z" />
</g>
<g id="#ffd24cff">
<path fill="#ffd24c" opacity="1.00" d=" M 162.95 127.26 L 164.19 127.26 C 164.53 141.49 164.76 155.73 164.76 169.96 C 164.69 171.62 165.54 172.63 167.30 172.99 C 168.23 157.76 167.10 142.51 167.68 127.27 L 168.95 127.24 C 168.50 143.03 169.54 158.85 168.52 174.62 C 166.27 174.25 164.11 173.39 162.87 171.36 C 163.55 156.68 162.80 141.96 162.95 127.26 Z" />
<path fill="#ffd24c" opacity="1.00" d=" M 34.14 142.47 C 34.67 142.40 35.72 142.27 36.25 142.20 L 36.25 142.21 L 35.34 142.99 C 33.45 156.18 31.86 169.43 29.83 182.61 C 29.72 183.74 29.99 184.78 30.66 185.70 C 30.41 185.87 29.90 186.21 29.64 186.39 C 28.64 189.82 28.76 193.49 27.96 196.99 C 32.48 194.29 37.34 191.73 40.84 187.73 C 42.39 184.02 40.96 179.87 41.06 175.98 C 41.00 165.24 39.44 154.52 40.23 143.78 C 39.93 143.60 39.34 143.24 39.04 143.05 C 38.86 142.89 38.49 142.55 38.31 142.38 C 39.20 142.39 40.09 142.42 40.98 142.48 C 41.36 149.66 41.85 156.84 41.94 164.04 C 42.13 171.90 43.47 179.86 42.61 187.68 C 39.34 192.34 33.79 194.66 29.32 198.00 L 27.40 198.00 C 26.14 193.56 28.12 189.08 28.25 184.60 C 27.96 184.47 27.40 184.19 27.12 184.06 L 28.78 184.38 C 28.55 183.26 28.07 182.28 27.36 181.42 C 29.29 181.71 28.99 179.16 29.20 177.92 C 30.71 166.08 32.20 154.23 34.14 142.47 Z" />
<path fill="#ffd24c" opacity="1.00" d=" M 67.82 142.20 L 69.11 142.15 C 67.96 150.04 66.84 157.92 66.06 165.85 C 64.34 175.83 63.13 185.92 61.94 195.98 C 65.20 194.03 68.40 191.97 71.49 189.75 C 73.38 188.35 75.50 186.56 75.32 183.95 C 75.09 176.31 74.58 168.67 74.23 161.03 C 74.00 157.32 74.46 153.52 73.51 149.87 C 73.63 147.27 73.49 144.66 73.31 142.07 C 73.71 142.06 74.53 142.04 74.94 142.03 C 74.95 143.29 74.97 144.54 74.98 145.80 C 74.46 151.21 75.80 156.55 75.85 161.96 C 75.98 167.97 76.13 173.98 76.67 179.98 C 76.78 182.96 77.44 186.62 74.78 188.76 C 70.82 192.15 66.35 194.92 61.86 197.56 C 61.15 196.57 60.20 195.54 60.60 194.22 C 61.82 184.70 63.17 175.20 64.45 165.70 C 65.62 157.87 66.36 149.98 67.82 142.20 Z" />
</g>
<g id="#5e4a35c5">
<path fill="#5e4a35" opacity="0.77" d=" M 129.32 165.69 C 131.27 165.65 133.22 165.72 135.17 165.77 C 135.04 167.94 134.93 170.13 135.19 172.31 L 134.37 172.33 C 134.44 170.19 134.49 168.05 134.51 165.92 C 132.95 165.93 131.38 165.94 129.81 165.95 C 129.84 168.12 129.96 170.28 130.05 172.45 C 129.87 172.50 129.53 172.59 129.36 172.64 C 129.23 170.32 129.23 168.00 129.32 165.69 Z" />
</g>
<g id="#7f3d00ff">
<path fill="#7f3d00" opacity="1.00" d=" M 129.81 165.95 C 131.38 165.94 132.95 165.93 134.51 165.92 C 134.49 168.05 134.44 170.19 134.37 172.33 C 132.93 172.35 131.49 172.39 130.05 172.45 C 129.96 170.28 129.84 168.12 129.81 165.95 Z" />
</g>
</svg>
